<svg t="1768296481361" class="icon" viewBox="0 0 1024 1024" version="1.1" xmlns="http://www.w3.org/2000/svg" p-id="5771" width="200" height="200"><path d="M0 0h1024v1024H0V0z" fill="#202425" opacity=".01" p-id="5772"></path><path d="M68.266667 204.8a136.533333 136.533333 0 0 1 136.533333-136.533333h614.4a136.533333 136.533333 0 0 1 136.533333 136.533333v512a136.533333 136.533333 0 0 1-136.533333 136.533333H204.8a136.533333 136.533333 0 0 1-136.533333-136.533333V204.8z" fill="#FF7744" p-id="5773"></path><path d="M290.133333 204.8A51.2 51.2 0 0 1 341.333333 153.6h341.333334a51.2 51.2 0 0 1 0 102.4H341.333333A51.2 51.2 0 0 1 290.133333 204.8z" fill="#FFFFFF" p-id="5774"></path><path d="M307.2 597.333333a17.066667 17.066667 0 0 1 17.066667-17.066666h375.466666a17.066667 17.066667 0 0 1 17.066667 17.066666v337.3056a34.133333 34.133333 0 0 1-49.390933 30.5152l-124.893867-62.429866a68.266667 68.266667 0 0 0-61.0304 0l-124.893867 62.464A34.133333 34.133333 0 0 1 307.2 934.6048V597.333333z" fill="#FFAA44" p-id="5775"></path><path d="M682.666667 580.266667a170.666667 170.666667 0 1 1-341.333334 0 170.666667 170.666667 0 0 1 341.333334 0z" fill="#FF7744" p-id="5776"></path><path d="M750.933333 580.266667a238.933333 238.933333 0 1 1-477.866666 0 238.933333 238.933333 0 0 1 477.866666 0z m-238.933333 170.666666a170.666667 170.666667 0 1 0 0-341.333333 170.666667 170.666667 0 0 0 0 341.333333z" fill="#FFFFFF" p-id="5777"></path></svg>