<svg t="1768296915692" class="icon" viewBox="0 0 1024 1024" version="1.1" xmlns="http://www.w3.org/2000/svg" p-id="14131" width="200" height="200"><path d="M688.384512 40.96c0.8704 0 1.621333 0.290133 2.491733 0.290133 59.5968 1.6384 107.554133 50.3808 107.844267 110.848V892.245333c-0.1536 61.3376-49.578667 111.121067-110.4896 111.274667H110.353579C49.271979 1003.229867-0.170155 953.2928 0.000512 891.8016V198.621867c4.864 6.826667 10.001067 13.192533 15.445333 19.4048 3.3792 4.010667 6.912 7.850667 10.581334 11.707733l1.041066 1.041067c47.530667 49.0496 112.6912 77.653333 181.845334 77.653333 141.380267 0 255.829333-115.285333 255.829333-257.536V40.96zM505.207979 601.224533c-0.136533 0.136533-0.426667 0.290133-0.580267 0.443734a183.466667 183.466667 0 0 1-105.198933 33.041066 183.9616 183.9616 0 0 1-105.181867-33.4848v87.415467c0 3.566933 0.733867 6.9632 2.048 10.24 1.3312 3.242667 3.242667 6.212267 5.597867 8.584533 4.846933 4.881067 11.4688 7.560533 18.244266 7.697067 3.5328 0 7.0656-0.733867 10.2912-2.065067 3.242667-1.3312 6.0416-3.259733 8.3968-5.632l60.603734-60.757333 60.4672 60.910933a26.4192 26.4192 0 0 0 45.1584-18.824533zM398.848512 289.450667c-74.2912 0-136.533333 51.712-153.4464 121.344-2.048 8.311467-3.3792 16.759467-4.130133 25.4976-0.290133 4.1472-0.580267 8.2944-0.580267 12.5952 0 3.857067 0.290133 7.560533 0.580267 11.264 0.3072 4.1472 0.750933 8.2944 1.3312 12.458666 0.1536 1.467733 0.290133 2.798933 0.597333 4.1472 0.580267 3.242667 1.314133 6.519467 2.048 9.6256l1.774933 6.656c0.580267 2.389333 1.314133 4.608 2.048 6.826667 1.024 3.106133 2.218667 6.229333 3.396267 9.181867 0.580267 1.3312 1.024 2.525867 1.604267 3.857066 1.774933 3.857067 3.5328 7.850667 5.597866 11.554134 0.290133 0.3072 0.443733 0.750933 0.580267 1.041066 26.9312 49.493333 79.018667 82.978133 138.888533 82.978134v0.733866c7.355733 0 14.574933-0.733867 21.777067-1.774933h0.443733a156.586667 156.586667 0 0 0 58.845867-20.8896c0.443733-0.1536 0.733867-0.443733 1.024-0.597333a160.290133 160.290133 0 0 0 30.1568-23.7056c0.750933-0.733867 1.194667-1.4848 1.774933-2.065067a7.406933 7.406933 0 0 0 1.024-1.194667 158.788267 158.788267 0 0 0 23.825067-32.597333c0.170667-0.290133 0.4608-0.733867 0.597333-1.024 1.774933-3.2768 3.3792-6.826667 5.000534-10.376533 0.597333-1.348267 1.194667-2.525867 1.774933-3.857067 1.314133-2.9696 2.3552-6.075733 3.3792-9.181867 0.733867-1.928533 1.467733-3.720533 2.048-5.632 0.887467-2.9696 1.4848-5.9392 2.218667-8.891733 0.580267-2.082133 1.1776-4.1472 1.621333-6.382933 0.580267-3.106133 1.024-6.365867 1.467733-9.6256 0.290133-1.928533 0.733867-3.857067 0.887467-5.922134 0.443733-3.566933 0.443733-7.2704 0.580267-10.973866 0.1536-1.774933 0.290133-3.413333 0.290133-5.188267 0-0.136533 0-0.290133-0.733867-0.580267 0-85.794133-67.515733-155.5968-151.9616-158.993066-2.065067 0-4.266667-0.3072-6.331733-0.3072zM1022.805845 257.365333c-6.365867-46.2336-41.898667-86.152533-92.654933-97.450666L908.117845 154.453333l-43.451733-10.564266a19.319467 19.319467 0 0 0-9.1648 0 19.029333 19.029333 0 0 0-8.055467 3.669333 19.2 19.2 0 0 0-7.765333 15.121067V942.08h1.536c5.137067-1.314133 13.5168-5.5808 25.617067-34.2016 2.338133-5.5808 5.290667-13.056 8.072533-22.016l146.346667-588.288c3.242667-13.789867 3.413333-27.2896 1.536-40.209067z" fill="#E02020" p-id="14132"></path><path d="M116.941312 40.96C52.361045 41.1136 0.154112 92.672 0.000512 156.296533v42.0352c4.778667 6.7584 10.1376 13.073067 15.5136 19.234134 3.413333 3.976533 7.168 7.799467 10.752 11.605333l1.024 1.024A259.498667 259.498667 0 0 0 211.661312 307.2C354.850645 307.2 471.040512 192.887467 471.040512 51.831467v-10.427734H116.941312V40.96z" fill="#EE4646" p-id="14133"></path></svg>